if (_typeface_js && _typeface_js.loadFace) _typeface_js.loadFace({"glyphs":{"S":{"x_min":68.484375,"x_max":589.359375,"ha":652,"o":"m 333 937 l 445 924 l 548 882 l 548 837 l 444 883 l 335 898 l 234 876 l 161 815 l 132 715 l 163 616 l 238 553 l 332 510 l 420 472 l 503 421 l 565 347 l 589 241 l 567 134 l 506 54 l 418 5 l 312 -11 l 225 -2 l 145 20 l 68 59 l 68 107 l 143 64 l 224 36 l 311 27 l 425 53 l 510 124 l 543 237 l 521 327 l 465 392 l 391 437 l 313 470 l 234 504 l 160 550 l 107 617 l 85 712 l 106 809 l 160 879 l 239 923 l 333 937 "},"a":{"x_min":45.328125,"x_max":602.859375,"ha":705,"o":"m 602 589 l 602 490 l 602 392 l 602 294 l 602 196 l 602 98 l 602 0 l 560 0 l 560 76 l 465 11 l 350 -11 l 253 3 l 169 47 l 104 112 l 60 196 l 45 294 l 60 391 l 103 476 l 167 542 l 251 585 l 348 600 l 464 577 l 560 513 l 560 589 l 602 589 m 352 25 l 467 52 l 560 124 l 560 237 l 560 351 l 560 463 l 467 537 l 352 564 l 248 543 l 164 485 l 108 399 l 87 294 l 108 190 l 164 104 l 248 46 l 352 25 "},"T":{"x_min":43.40625,"x_max":766.84375,"ha":810,"o":"m 766 887 l 653 887 l 541 887 l 428 887 l 428 789 l 428 690 l 428 591 l 428 492 l 428 394 l 428 296 l 428 196 l 428 98 l 428 0 l 381 0 l 381 98 l 381 196 l 381 296 l 381 394 l 381 492 l 381 591 l 381 690 l 381 789 l 381 887 l 269 887 l 156 887 l 43 887 l 43 926 l 146 926 l 249 926 l 353 926 l 457 926 l 560 926 l 663 926 l 766 926 l 766 887 "},"N":{"x_min":127.328125,"x_max":867.15625,"ha":994,"o":"m 867 0 l 814 0 l 756 78 l 697 156 l 639 234 l 580 312 l 522 390 l 463 469 l 406 547 l 347 626 l 289 704 l 230 782 l 172 860 l 172 764 l 172 669 l 172 573 l 172 478 l 172 381 l 172 286 l 172 190 l 172 95 l 172 0 l 127 0 l 127 103 l 127 205 l 127 308 l 127 411 l 127 514 l 127 617 l 127 720 l 127 822 l 127 926 l 180 926 l 238 847 l 297 769 l 354 691 l 413 613 l 471 535 l 530 457 l 588 379 l 647 300 l 705 222 l 763 144 l 821 66 l 821 162 l 821 257 l 821 353 l 821 448 l 821 544 l 821 639 l 821 735 l 821 830 l 821 926 l 867 926 l 867 822 l 867 720 l 867 617 l 867 514 l 867 411 l 867 308 l 867 205 l 867 103 l 867 0 "},"K":{"x_min":128.296875,"x_max":708.96875,"ha":726,"o":"m 174 0 l 128 0 l 128 103 l 128 205 l 128 308 l 128 411 l 128 514 l 128 617 l 128 720 l 128 822 l 128 926 l 174 926 l 174 822 l 174 720 l 174 617 l 174 514 l 174 411 l 174 308 l 174 205 l 174 103 l 174 0 m 243 492 l 309 422 l 376 352 l 442 281 l 509 211 l 575 140 l 642 70 l 708 0 l 648 0 l 582 70 l 516 140 l 450 211 l 383 280 l 318 351 l 251 421 l 186 491 l 253 564 l 321 636 l 388 708 l 456 781 l 523 853 l 591 926 l 651 926 l 582 853 l 515 781 l 446 708 l 379 637 l 310 565 l 243 492 "},"d":{"x_min":45.328125,"x_max":602.859375,"ha":705,"o":"m 602 926 l 602 822 l 602 720 l 602 617 l 602 514 l 602 411 l 602 308 l 602 205 l 602 103 l 602 0 l 560 0 l 560 76 l 464 11 l 348 -11 l 251 3 l 167 47 l 103 112 l 60 196 l 45 294 l 60 391 l 104 476 l 169 542 l 253 585 l 350 600 l 465 577 l 560 513 l 560 616 l 560 719 l 560 822 l 560 926 l 602 926 m 352 25 l 467 52 l 560 124 l 560 237 l 560 351 l 560 463 l 467 537 l 352 564 l 248 543 l 164 485 l 108 399 l 87 294 l 108 190 l 164 104 l 248 46 l 352 25 "},"Y":{"x_min":42.4375,"x_max":783.234375,"ha":826,"o":"m 435 457 l 435 365 l 435 273 l 435 183 l 435 91 l 435 0 l 389 0 l 389 91 l 389 183 l 389 273 l 389 365 l 389 457 l 331 535 l 273 613 l 216 691 l 158 769 l 100 847 l 42 926 l 100 926 l 163 841 l 225 756 l 288 670 l 351 585 l 413 500 l 476 585 l 539 670 l 601 756 l 664 841 l 727 926 l 783 926 l 725 847 l 667 769 l 609 691 l 551 613 l 493 535 l 435 457 "},"E":{"x_min":128.296875,"x_max":630.84375,"ha":679,"o":"m 630 887 l 539 887 l 448 887 l 356 887 l 266 887 l 174 887 l 174 788 l 174 688 l 174 590 l 174 490 l 273 490 l 373 490 l 473 490 l 572 490 l 572 453 l 473 453 l 373 453 l 273 453 l 174 453 l 174 349 l 174 245 l 174 141 l 174 38 l 266 38 l 356 38 l 448 38 l 539 38 l 630 38 l 630 0 l 530 0 l 430 0 l 328 0 l 228 0 l 128 0 l 128 103 l 128 205 l 128 308 l 128 411 l 128 514 l 128 617 l 128 720 l 128 822 l 128 926 l 228 926 l 328 926 l 430 926 l 530 926 l 630 926 l 630 887 "},"j":{"x_min":-81.984375,"x_max":183.265625,"ha":300,"o":"m 149 844 l 183 810 l 149 776 l 116 810 l 149 844 m 170 578 l 170 480 l 170 381 l 170 283 l 170 186 l 170 87 l 170 -10 l 170 -109 l 151 -207 l 98 -287 l 18 -339 l -81 -358 l -81 -321 l 25 -292 l 100 -216 l 129 -107 l 129 -8 l 129 88 l 129 187 l 129 284 l 129 382 l 129 480 l 129 578 l 170 578 "},"y":{"x_min":43.40625,"x_max":551.734375,"ha":594,"o":"m 318 0 l 284 -83 l 250 -168 l 218 -252 l 184 -336 l 141 -336 l 175 -252 l 208 -168 l 242 -83 l 275 0 l 237 98 l 198 196 l 159 294 l 120 392 l 81 490 l 43 589 l 86 589 l 121 499 l 157 410 l 191 321 l 226 232 l 262 142 l 297 54 l 331 142 l 367 232 l 402 321 l 437 410 l 472 499 l 508 589 l 551 589 l 513 490 l 473 392 l 435 294 l 396 196 l 356 98 l 318 0 "},"Z":{"x_min":46.296875,"x_max":768.765625,"ha":815,"o":"m 768 887 l 708 810 l 648 733 l 588 655 l 527 578 l 467 501 l 407 424 l 347 347 l 286 270 l 226 192 l 165 115 l 106 38 l 200 38 l 295 38 l 389 38 l 485 38 l 579 38 l 674 38 l 768 38 l 768 0 l 665 0 l 562 0 l 459 0 l 355 0 l 252 0 l 149 0 l 46 0 l 46 38 l 107 115 l 166 192 l 227 270 l 288 347 l 348 424 l 408 501 l 468 578 l 529 655 l 590 733 l 650 810 l 710 887 l 616 887 l 520 887 l 426 887 l 330 887 l 236 887 l 140 887 l 46 887 l 46 926 l 149 926 l 252 926 l 355 926 l 459 926 l 562 926 l 665 926 l 768 926 l 768 887 "},"u":{"x_min":126.359375,"x_max":628.90625,"ha":757,"o":"m 628 589 l 628 490 l 628 392 l 628 294 l 628 196 l 628 98 l 628 0 l 587 0 l 587 75 l 491 11 l 375 -11 l 276 7 l 197 60 l 145 139 l 126 238 l 126 326 l 126 413 l 126 501 l 126 589 l 168 589 l 168 472 l 168 356 l 168 240 l 197 132 l 272 54 l 379 26 l 494 53 l 587 126 l 587 218 l 587 311 l 587 404 l 587 496 l 587 589 l 628 589 "},"k":{"x_min":78.125,"x_max":588.390625,"ha":605,"o":"m 295 307 l 207 219 l 120 132 l 120 0 l 78 0 l 78 103 l 78 205 l 78 308 l 78 411 l 78 514 l 78 617 l 78 720 l 78 822 l 78 926 l 120 926 l 120 819 l 120 713 l 120 607 l 120 501 l 120 395 l 120 289 l 120 183 l 188 250 l 254 318 l 322 385 l 389 454 l 456 521 l 523 589 l 575 589 l 512 525 l 449 462 l 385 399 l 323 335 l 389 251 l 455 167 l 521 83 l 588 0 l 537 0 l 476 77 l 415 153 l 355 230 l 295 307 "},"g":{"x_min":45.328125,"x_max":602.859375,"ha":705,"o":"m 602 589 l 602 490 l 602 393 l 602 295 l 602 197 l 602 99 l 602 1 l 602 -96 l 583 -195 l 529 -274 l 449 -327 l 350 -347 l 261 -334 l 184 -299 l 121 -245 l 121 -192 l 181 -255 l 258 -298 l 347 -312 l 455 -282 l 531 -205 l 560 -96 l 560 -7 l 560 81 l 464 17 l 348 -6 l 251 8 l 167 51 l 103 116 l 60 199 l 45 297 l 60 394 l 104 477 l 169 543 l 253 585 l 350 600 l 465 577 l 560 513 l 560 589 l 602 589 m 352 28 l 467 54 l 560 127 l 560 240 l 560 354 l 560 466 l 467 539 l 352 566 l 248 544 l 164 487 l 108 402 l 87 297 l 108 192 l 164 108 l 248 50 l 352 28 "},"t":{"x_min":66.5625,"x_max":365.578125,"ha":410,"o":"m 154 459 l 154 349 l 154 240 l 183 131 l 258 54 l 365 26 l 365 -11 l 265 7 l 185 59 l 132 139 l 112 238 l 112 348 l 112 459 l 66 459 l 66 494 l 112 494 l 112 599 l 112 705 l 154 705 l 154 599 l 154 494 l 259 494 l 365 494 l 365 459 l 259 459 l 154 459 "},"e":{"x_min":45.328125,"x_max":659.78125,"ha":705,"o":"m 352 600 l 449 585 l 534 542 l 600 475 l 644 389 l 659 289 l 564 289 l 468 289 l 373 289 l 278 289 l 183 289 l 87 289 l 110 185 l 168 101 l 253 44 l 355 24 l 445 39 l 524 81 l 585 145 l 585 92 l 520 36 l 442 0 l 353 -11 l 254 3 l 170 47 l 104 112 l 60 196 l 45 294 l 60 391 l 104 476 l 170 542 l 254 585 l 352 600 m 88 321 l 193 321 l 299 321 l 405 321 l 510 321 l 615 321 l 587 419 l 529 497 l 448 549 l 352 568 l 254 548 l 172 496 l 115 418 l 88 321 "},"J":{"x_min":4.828125,"x_max":461.078125,"ha":589,"o":"m 461 926 l 461 830 l 461 735 l 461 639 l 461 543 l 461 447 l 461 352 l 461 256 l 440 143 l 384 59 l 299 6 l 195 -11 l 90 8 l 4 64 l 4 122 l 86 56 l 190 31 l 276 47 l 348 91 l 397 163 l 414 259 l 414 354 l 414 449 l 414 544 l 414 640 l 414 735 l 414 830 l 414 926 l 461 926 "},"W":{"x_min":92.59375,"x_max":1296.40625,"ha":1389,"o":"m 1007 0 l 960 0 l 930 95 l 901 190 l 871 285 l 842 381 l 813 476 l 783 572 l 753 666 l 724 762 l 694 857 l 664 762 l 635 666 l 605 572 l 575 476 l 546 381 l 517 285 l 487 190 l 458 95 l 428 0 l 381 0 l 353 92 l 324 185 l 295 277 l 266 370 l 237 463 l 208 555 l 179 648 l 150 740 l 121 833 l 92 926 l 138 926 l 168 830 l 197 735 l 227 640 l 257 544 l 286 449 l 316 354 l 346 259 l 375 163 l 405 68 l 435 163 l 463 259 l 493 354 l 523 449 l 552 544 l 582 640 l 612 735 l 641 830 l 671 926 l 717 926 l 747 830 l 776 735 l 806 640 l 836 544 l 865 449 l 895 354 l 925 259 l 953 163 l 983 68 l 1013 163 l 1042 259 l 1072 354 l 1102 449 l 1131 544 l 1161 640 l 1191 735 l 1220 830 l 1250 926 l 1296 926 l 1267 833 l 1238 740 l 1209 648 l 1180 555 l 1151 463 l 1122 370 l 1093 277 l 1064 185 l 1035 92 l 1007 0 "},"v":{"x_min":43.40625,"x_max":551.734375,"ha":594,"o":"m 318 0 l 275 0 l 237 98 l 198 196 l 159 294 l 120 392 l 81 490 l 43 589 l 86 589 l 121 500 l 157 410 l 191 322 l 226 233 l 262 143 l 297 54 l 331 143 l 367 233 l 402 322 l 437 410 l 472 500 l 508 589 l 551 589 l 513 490 l 473 392 l 435 294 l 396 196 l 356 98 l 318 0 "},"s":{"x_min":63.65625,"x_max":531.484375,"ha":589,"o":"m 293 600 l 398 587 l 494 547 l 494 505 l 398 549 l 293 565 l 172 536 l 122 449 l 179 359 l 299 325 l 408 299 l 495 250 l 531 157 l 498 64 l 411 7 l 292 -12 l 172 2 l 63 51 l 63 94 l 171 41 l 293 23 l 390 38 l 461 81 l 488 155 l 457 231 l 381 271 l 288 290 l 190 316 l 111 364 l 81 450 l 109 532 l 186 583 l 293 600 "},"B":{"x_min":128.296875,"x_max":669.421875,"ha":716,"o":"m 128 926 l 212 926 l 295 926 l 379 926 l 470 908 l 544 860 l 593 789 l 611 701 l 594 614 l 544 543 l 473 495 l 574 448 l 643 363 l 669 252 l 649 153 l 594 73 l 511 19 l 408 0 l 315 0 l 221 0 l 128 0 l 128 103 l 128 205 l 128 308 l 128 411 l 128 514 l 128 617 l 128 720 l 128 822 l 128 926 m 174 889 l 174 793 l 174 698 l 174 603 l 174 508 l 274 508 l 375 508 l 471 534 l 539 602 l 565 698 l 539 793 l 471 863 l 375 889 l 274 889 l 174 889 m 174 472 l 174 363 l 174 254 l 174 145 l 174 36 l 289 36 l 405 36 l 516 66 l 593 145 l 623 255 l 593 364 l 516 442 l 405 472 l 289 472 l 174 472 "},"H":{"x_min":128.296875,"x_max":861.375,"ha":989,"o":"m 861 0 l 814 0 l 814 90 l 814 180 l 814 271 l 814 360 l 814 451 l 708 451 l 600 451 l 494 451 l 388 451 l 281 451 l 175 451 l 175 360 l 175 271 l 175 180 l 175 90 l 175 0 l 128 0 l 128 103 l 128 205 l 128 308 l 128 411 l 128 514 l 128 617 l 128 720 l 128 822 l 128 926 l 175 926 l 175 817 l 175 708 l 175 600 l 175 492 l 281 492 l 388 492 l 494 492 l 600 492 l 708 492 l 814 492 l 814 600 l 814 708 l 814 817 l 814 926 l 861 926 l 861 822 l 861 720 l 861 617 l 861 514 l 861 411 l 861 308 l 861 205 l 861 103 l 861 0 "},"c":{"x_min":55.953125,"x_max":590.328125,"ha":637,"o":"m 361 600 l 449 588 l 526 551 l 590 496 l 590 441 l 529 505 l 453 547 l 363 563 l 260 542 l 175 484 l 119 399 l 98 294 l 119 190 l 175 105 l 260 47 l 363 26 l 453 41 l 529 83 l 590 147 l 590 92 l 526 36 l 449 0 l 361 -11 l 264 3 l 180 47 l 114 112 l 71 196 l 55 294 l 71 391 l 114 476 l 180 542 l 264 585 l 361 600 "},"q":{"x_min":45.328125,"x_max":602.859375,"ha":705,"o":"m 602 589 l 602 486 l 602 383 l 602 280 l 602 177 l 602 75 l 602 -27 l 602 -131 l 602 -233 l 602 -336 l 560 -336 l 560 -233 l 560 -130 l 560 -27 l 560 76 l 465 11 l 350 -11 l 253 3 l 169 47 l 104 112 l 60 196 l 45 294 l 60 391 l 103 476 l 167 542 l 251 585 l 348 600 l 464 577 l 560 513 l 560 589 l 602 589 m 352 25 l 467 52 l 560 124 l 560 237 l 560 351 l 560 463 l 467 537 l 352 564 l 248 543 l 164 485 l 108 399 l 87 294 l 108 190 l 164 104 l 248 46 l 352 25 "},"b":{"x_min":102.25,"x_max":659.78125,"ha":705,"o":"m 354 600 l 451 585 l 535 542 l 600 476 l 644 391 l 659 294 l 644 196 l 601 112 l 536 47 l 452 3 l 355 -11 l 239 12 l 143 77 l 143 0 l 102 0 l 102 103 l 102 205 l 102 308 l 102 411 l 102 514 l 102 617 l 102 720 l 102 822 l 102 926 l 143 926 l 143 822 l 143 718 l 143 615 l 143 512 l 238 576 l 354 600 m 352 25 l 456 46 l 540 104 l 597 190 l 617 294 l 597 399 l 540 485 l 456 543 l 352 564 l 236 537 l 143 463 l 143 350 l 143 238 l 143 125 l 236 52 l 352 25 "},"D":{"x_min":128.296875,"x_max":941.4375,"ha":985,"o":"m 128 926 l 244 926 l 358 926 l 474 926 l 581 913 l 680 879 l 766 824 l 839 753 l 894 667 l 928 570 l 941 463 l 928 355 l 894 258 l 839 172 l 766 101 l 680 46 l 581 12 l 474 0 l 358 0 l 244 0 l 128 0 l 128 103 l 128 205 l 128 308 l 128 411 l 128 514 l 128 617 l 128 720 l 128 822 l 128 926 m 174 883 l 174 778 l 174 672 l 174 567 l 174 462 l 174 356 l 174 250 l 174 145 l 174 40 l 274 40 l 374 40 l 474 40 l 571 52 l 658 83 l 736 133 l 801 198 l 850 276 l 882 366 l 893 463 l 882 559 l 850 648 l 801 726 l 736 791 l 658 841 l 571 872 l 474 883 l 374 883 l 274 883 l 174 883 "},"I":{"x_min":129.25,"x_max":175.546875,"ha":305,"o":"m 175 0 l 129 0 l 129 103 l 129 205 l 129 308 l 129 411 l 129 514 l 129 617 l 129 720 l 129 822 l 129 926 l 175 926 l 175 822 l 175 720 l 175 617 l 175 514 l 175 411 l 175 308 l 175 205 l 175 103 l 175 0 "},"G":{"x_min":43.40625,"x_max":878.734375,"ha":979,"o":"m 523 937 l 625 926 l 719 896 l 805 846 l 878 782 l 878 725 l 808 795 l 724 849 l 628 883 l 524 896 l 424 884 l 333 851 l 252 800 l 186 734 l 135 653 l 103 562 l 91 463 l 103 363 l 135 272 l 186 190 l 252 123 l 332 72 l 424 39 l 523 27 l 615 37 l 699 66 l 774 111 l 839 170 l 839 257 l 838 345 l 838 432 l 732 432 l 626 432 l 520 432 l 520 469 l 610 469 l 699 469 l 789 469 l 878 469 l 878 361 l 878 253 l 878 145 l 805 80 l 719 30 l 624 0 l 521 -11 l 411 0 l 310 36 l 221 92 l 148 165 l 91 253 l 55 354 l 43 463 l 55 572 l 91 671 l 147 759 l 220 833 l 310 889 l 411 925 l 523 937 "},"z":{"x_min":47.265625,"x_max":542.09375,"ha":589,"o":"m 542 552 l 479 479 l 415 405 l 353 331 l 289 257 l 226 184 l 163 109 l 100 36 l 210 36 l 321 36 l 431 36 l 542 36 l 542 0 l 442 0 l 344 0 l 245 0 l 146 0 l 47 0 l 47 36 l 109 109 l 173 184 l 236 257 l 299 331 l 362 405 l 426 479 l 489 552 l 378 552 l 268 552 l 157 552 l 47 552 l 47 589 l 146 589 l 245 589 l 344 589 l 442 589 l 542 589 l 542 552 "},"U":{"x_min":101.28125,"x_max":830.5,"ha":931,"o":"m 830 926 l 830 830 l 830 735 l 830 638 l 830 543 l 830 447 l 830 352 l 817 254 l 780 166 l 723 93 l 649 37 l 562 0 l 465 -11 l 368 0 l 281 37 l 207 93 l 150 166 l 113 253 l 101 352 l 101 447 l 101 543 l 101 638 l 101 735 l 101 830 l 101 926 l 148 926 l 148 830 l 148 735 l 148 638 l 148 543 l 148 447 l 148 352 l 164 249 l 209 161 l 277 92 l 364 47 l 465 30 l 566 47 l 653 92 l 722 162 l 766 249 l 783 352 l 783 447 l 783 543 l 783 638 l 783 735 l 783 830 l 783 926 l 830 926 "},"w":{"x_min":43.40625,"x_max":898.984375,"ha":941,"o":"m 694 0 l 655 0 l 625 88 l 594 177 l 563 266 l 532 354 l 501 443 l 470 532 l 439 443 l 408 354 l 378 266 l 347 177 l 316 88 l 285 0 l 246 0 l 213 98 l 179 196 l 144 294 l 110 392 l 77 490 l 43 589 l 85 589 l 115 501 l 146 413 l 176 325 l 207 237 l 237 149 l 268 61 l 299 149 l 329 237 l 359 325 l 390 413 l 421 501 l 452 589 l 490 589 l 520 501 l 550 413 l 581 325 l 612 237 l 642 149 l 673 61 l 703 149 l 734 237 l 763 325 l 794 413 l 824 501 l 855 589 l 898 589 l 865 490 l 830 392 l 796 294 l 762 196 l 728 98 l 694 0 "},"F":{"x_min":128.296875,"x_max":630.84375,"ha":647,"o":"m 630 887 l 539 887 l 448 887 l 356 887 l 266 887 l 174 887 l 174 788 l 174 687 l 174 588 l 174 489 l 273 489 l 373 489 l 473 489 l 572 489 l 572 451 l 473 451 l 373 451 l 273 451 l 174 451 l 174 360 l 174 271 l 174 180 l 174 90 l 174 0 l 128 0 l 128 103 l 128 205 l 128 308 l 128 411 l 128 514 l 128 617 l 128 720 l 128 822 l 128 926 l 228 926 l 328 926 l 430 926 l 530 926 l 630 926 l 630 887 "},"r":{"x_min":112.859375,"x_max":589.359375,"ha":579,"o":"m 366 600 l 452 588 l 527 552 l 589 498 l 589 442 l 529 505 l 452 547 l 362 562 l 246 535 l 154 463 l 154 370 l 154 277 l 154 185 l 154 92 l 154 0 l 112 0 l 112 98 l 112 196 l 112 294 l 112 392 l 112 490 l 112 589 l 154 589 l 154 513 l 249 577 l 366 600 "},"x":{"x_min":43.40625,"x_max":556.5625,"ha":600,"o":"m 299 272 l 231 181 l 163 90 l 95 0 l 43 0 l 101 75 l 158 150 l 216 226 l 273 301 l 218 373 l 163 445 l 109 517 l 54 589 l 106 589 l 170 503 l 235 418 l 299 332 l 364 418 l 429 503 l 493 589 l 544 589 l 490 517 l 435 445 l 381 373 l 326 301 l 383 226 l 440 150 l 498 75 l 556 0 l 504 0 l 435 90 l 368 181 l 299 272 "},"V":{"x_min":84.890625,"x_max":851.734375,"ha":937,"o":"m 492 0 l 443 0 l 408 92 l 372 185 l 335 277 l 299 370 l 264 463 l 228 555 l 192 648 l 156 740 l 120 833 l 84 926 l 134 926 l 170 829 l 208 733 l 245 637 l 282 541 l 319 444 l 356 348 l 393 252 l 431 156 l 467 59 l 505 156 l 542 252 l 579 348 l 616 444 l 653 541 l 690 637 l 728 733 l 764 829 l 802 926 l 851 926 l 816 833 l 780 740 l 743 648 l 708 555 l 672 463 l 636 370 l 600 277 l 564 185 l 528 92 l 492 0 "},"Q":{"x_min":43.40625,"x_max":998.34375,"ha":1042,"o":"m 998 463 l 987 363 l 958 272 l 911 190 l 849 118 l 924 58 l 998 0 l 941 0 l 881 47 l 822 95 l 734 37 l 631 0 l 520 -11 l 410 0 l 310 36 l 221 92 l 148 165 l 91 253 l 55 354 l 43 463 l 55 572 l 91 672 l 148 760 l 221 833 l 310 889 l 410 925 l 520 937 l 630 925 l 731 889 l 819 833 l 893 760 l 950 672 l 985 572 l 998 463 m 520 29 l 619 41 l 708 73 l 788 123 l 718 179 l 648 235 l 578 291 l 509 347 l 565 347 l 648 280 l 732 214 l 815 147 l 871 213 l 913 288 l 940 372 l 950 463 l 938 562 l 906 653 l 855 734 l 789 800 l 709 851 l 619 884 l 520 896 l 422 884 l 331 851 l 252 800 l 186 734 l 135 653 l 103 562 l 91 463 l 103 363 l 135 272 l 186 191 l 252 125 l 331 74 l 422 41 l 520 29 "},"h":{"x_min":112.859375,"x_max":615.40625,"ha":705,"o":"m 366 600 l 464 581 l 544 528 l 596 449 l 615 351 l 615 263 l 615 175 l 615 87 l 615 0 l 572 0 l 572 116 l 572 232 l 572 349 l 544 457 l 468 534 l 362 563 l 246 536 l 154 463 l 154 370 l 154 277 l 154 185 l 154 92 l 154 0 l 112 0 l 112 103 l 112 205 l 112 308 l 112 411 l 112 514 l 112 617 l 112 720 l 112 822 l 112 926 l 154 926 l 154 822 l 154 719 l 154 617 l 154 514 l 249 577 l 366 600 "},"M":{"x_min":128.296875,"x_max":983.875,"ha":1112,"o":"m 983 0 l 937 0 l 937 95 l 937 190 l 937 286 l 937 381 l 937 478 l 937 573 l 937 669 l 937 764 l 937 860 l 876 772 l 816 685 l 755 598 l 694 511 l 633 423 l 572 336 l 538 336 l 477 423 l 416 510 l 355 597 l 295 684 l 234 771 l 173 858 l 173 762 l 173 667 l 173 572 l 173 476 l 173 381 l 173 286 l 173 190 l 173 95 l 173 0 l 128 0 l 128 103 l 128 205 l 128 308 l 128 411 l 128 514 l 128 617 l 128 720 l 128 822 l 128 926 l 182 926 l 235 849 l 289 772 l 342 696 l 395 620 l 448 544 l 502 466 l 555 390 l 608 466 l 662 544 l 715 620 l 768 696 l 821 772 l 875 849 l 928 926 l 983 926 l 983 822 l 983 720 l 983 617 l 983 514 l 983 411 l 983 308 l 983 205 l 983 103 l 983 0 "},"C":{"x_min":43.40625,"x_max":874.875,"ha":921,"o":"m 518 937 l 623 926 l 718 895 l 802 845 l 874 782 l 874 721 l 804 792 l 721 847 l 626 883 l 522 896 l 423 884 l 332 851 l 252 800 l 186 734 l 135 653 l 103 562 l 91 463 l 103 363 l 135 272 l 186 191 l 252 125 l 332 74 l 423 41 l 522 29 l 626 42 l 721 77 l 804 132 l 874 203 l 874 143 l 802 79 l 718 29 l 623 0 l 518 -11 l 409 0 l 309 36 l 220 92 l 147 165 l 91 253 l 55 354 l 43 463 l 55 572 l 91 672 l 147 760 l 220 833 l 309 889 l 409 925 l 518 937 "},"f":{"x_min":66.5625,"x_max":365.578125,"ha":410,"o":"m 365 937 l 365 899 l 258 871 l 183 794 l 154 685 l 154 590 l 154 494 l 259 494 l 365 494 l 365 459 l 259 459 l 154 459 l 154 367 l 154 275 l 154 183 l 154 91 l 154 0 l 112 0 l 112 91 l 112 183 l 112 275 l 112 367 l 112 459 l 66 459 l 66 494 l 112 494 l 112 591 l 112 687 l 132 786 l 185 866 l 265 918 l 365 937 "},"L":{"x_min":154.328125,"x_max":656.875,"ha":699,"o":"m 200 41 l 292 41 l 382 41 l 474 41 l 565 41 l 656 41 l 656 0 l 556 0 l 456 0 l 354 0 l 254 0 l 154 0 l 154 103 l 154 205 l 154 308 l 154 411 l 154 514 l 154 617 l 154 720 l 154 822 l 154 926 l 200 926 l 200 827 l 200 729 l 200 630 l 200 532 l 200 435 l 200 336 l 200 238 l 200 139 l 200 41 "},"i":{"x_min":116.71875,"x_max":183.265625,"ha":300,"o":"m 149 844 l 183 810 l 149 776 l 116 810 l 149 844 m 170 0 l 129 0 l 129 96 l 129 192 l 129 289 l 129 385 l 129 482 l 129 578 l 170 578 l 170 482 l 170 385 l 170 289 l 170 192 l 170 96 l 170 0 "},"A":{"x_min":84.890625,"x_max":851.734375,"ha":937,"o":"m 259 332 l 227 249 l 194 165 l 163 82 l 131 0 l 84 0 l 120 92 l 156 185 l 192 277 l 228 370 l 264 463 l 299 555 l 335 648 l 372 740 l 408 833 l 443 926 l 492 926 l 528 833 l 564 740 l 600 648 l 636 555 l 672 463 l 708 370 l 743 277 l 780 185 l 816 92 l 851 0 l 805 0 l 773 82 l 740 165 l 708 249 l 677 332 l 572 332 l 467 332 l 363 332 l 259 332 m 467 876 l 429 775 l 390 674 l 351 573 l 312 472 l 273 371 l 371 371 l 467 371 l 565 371 l 662 371 l 624 472 l 584 573 l 545 674 l 506 775 l 467 876 "},"n":{"x_min":112.859375,"x_max":615.40625,"ha":705,"o":"m 366 600 l 464 581 l 544 528 l 596 449 l 615 351 l 615 263 l 615 175 l 615 87 l 615 0 l 572 0 l 572 116 l 572 232 l 572 349 l 544 457 l 468 534 l 362 563 l 246 536 l 154 463 l 154 370 l 154 277 l 154 185 l 154 92 l 154 0 l 112 0 l 112 98 l 112 196 l 112 294 l 112 392 l 112 490 l 112 589 l 154 589 l 154 514 l 249 577 l 366 600 "},"O":{"x_min":43.40625,"x_max":998.34375,"ha":1042,"o":"m 520 937 l 629 925 l 731 889 l 818 833 l 893 760 l 950 672 l 985 572 l 998 463 l 985 354 l 950 253 l 893 165 l 818 92 l 731 36 l 629 0 l 520 -11 l 411 0 l 310 36 l 222 92 l 148 165 l 91 253 l 55 354 l 43 463 l 55 572 l 91 672 l 148 760 l 222 833 l 310 889 l 411 925 l 520 937 m 520 896 l 422 884 l 331 851 l 252 800 l 186 734 l 135 653 l 103 562 l 91 463 l 103 363 l 135 272 l 186 191 l 252 125 l 331 74 l 422 41 l 520 29 l 619 41 l 709 74 l 789 125 l 855 191 l 906 272 l 938 363 l 950 463 l 938 562 l 906 653 l 855 734 l 789 800 l 709 851 l 619 884 l 520 896 "}," ":{"x_min":0,"x_max":0,"ha":553},"X":{"x_min":42.4375,"x_max":789.03125,"ha":831,"o":"m 444 483 l 501 402 l 559 322 l 616 241 l 674 161 l 731 80 l 789 0 l 731 0 l 668 89 l 604 178 l 542 268 l 478 356 l 415 446 l 352 356 l 289 268 l 225 178 l 163 89 l 99 0 l 42 0 l 99 80 l 157 161 l 214 241 l 272 322 l 328 402 l 386 483 l 324 572 l 260 660 l 197 748 l 134 837 l 71 926 l 129 926 l 186 844 l 244 763 l 300 681 l 358 600 l 415 519 l 473 600 l 530 681 l 588 763 l 645 844 l 703 926 l 760 926 l 697 837 l 633 748 l 571 660 l 507 572 l 444 483 "},"P":{"x_min":128.296875,"x_max":640.484375,"ha":710,"o":"m 128 926 l 216 926 l 304 926 l 392 926 l 489 906 l 568 853 l 621 775 l 640 680 l 621 584 l 568 505 l 489 452 l 392 433 l 283 433 l 174 433 l 174 325 l 174 216 l 174 108 l 174 0 l 128 0 l 128 103 l 128 205 l 128 308 l 128 411 l 128 514 l 128 617 l 128 720 l 128 822 l 128 926 m 174 887 l 174 783 l 174 679 l 174 575 l 174 471 l 281 471 l 389 471 l 493 500 l 567 574 l 595 680 l 567 784 l 493 858 l 389 887 l 281 887 l 174 887 "},"m":{"x_min":112.859375,"x_max":1078.40625,"ha":1168,"o":"m 829 600 l 927 581 l 1007 528 l 1059 449 l 1078 351 l 1078 263 l 1078 175 l 1078 87 l 1078 0 l 1035 0 l 1035 116 l 1035 232 l 1035 349 l 1007 457 l 931 534 l 825 563 l 737 547 l 661 505 l 600 439 l 616 351 l 616 263 l 616 175 l 616 87 l 616 0 l 573 0 l 573 116 l 573 232 l 573 349 l 545 457 l 470 534 l 363 563 l 246 536 l 154 461 l 154 368 l 154 276 l 154 184 l 154 92 l 154 0 l 112 0 l 112 98 l 112 196 l 112 294 l 112 392 l 112 490 l 112 589 l 154 589 l 154 512 l 250 576 l 368 600 l 457 585 l 530 542 l 584 476 l 650 543 l 734 585 l 829 600 "},"l":{"x_min":112.859375,"x_max":365.578125,"ha":410,"o":"m 155 926 l 155 827 l 155 730 l 155 631 l 155 534 l 155 435 l 155 338 l 155 240 l 184 131 l 259 54 l 365 26 l 365 -11 l 265 7 l 185 59 l 132 139 l 112 238 l 112 336 l 112 435 l 112 533 l 112 630 l 112 729 l 112 827 l 112 926 l 155 926 "},"p":{"x_min":102.25,"x_max":659.78125,"ha":705,"o":"m 354 600 l 451 585 l 535 542 l 600 476 l 644 391 l 659 294 l 644 196 l 601 112 l 536 47 l 452 3 l 355 -11 l 239 12 l 143 77 l 143 -26 l 143 -130 l 143 -233 l 143 -336 l 102 -336 l 102 -233 l 102 -131 l 102 -27 l 102 75 l 102 177 l 102 280 l 102 383 l 102 486 l 102 589 l 143 589 l 143 512 l 238 576 l 354 600 m 352 25 l 456 46 l 540 104 l 597 190 l 617 294 l 597 399 l 540 485 l 456 543 l 352 564 l 236 537 l 143 463 l 143 350 l 143 238 l 143 125 l 236 52 l 352 25 "},"R":{"x_min":143.71875,"x_max":714.75,"ha":769,"o":"m 143 926 l 232 926 l 320 926 l 408 926 l 504 906 l 583 853 l 636 775 l 655 680 l 639 591 l 593 517 l 525 464 l 441 439 l 496 352 l 550 264 l 605 175 l 659 87 l 714 0 l 661 0 l 607 86 l 554 173 l 500 259 l 447 346 l 393 433 l 291 433 l 190 433 l 190 325 l 190 216 l 190 108 l 190 0 l 143 0 l 143 103 l 143 205 l 143 308 l 143 411 l 143 514 l 143 617 l 143 720 l 143 822 l 143 926 m 190 887 l 190 783 l 190 679 l 190 575 l 190 471 l 297 471 l 405 471 l 509 500 l 582 574 l 610 680 l 582 784 l 509 858 l 405 887 l 297 887 l 190 887 "},"o":{"x_min":45.328125,"x_max":659.78125,"ha":705,"o":"m 352 600 l 449 585 l 534 542 l 600 476 l 644 391 l 659 294 l 644 196 l 600 112 l 534 47 l 449 3 l 352 -11 l 254 3 l 170 47 l 104 112 l 60 196 l 45 294 l 60 391 l 104 476 l 170 542 l 254 585 l 352 600 m 352 564 l 248 543 l 164 485 l 109 399 l 87 294 l 109 190 l 164 104 l 248 46 l 352 25 l 455 46 l 539 104 l 596 190 l 617 294 l 596 399 l 539 485 l 455 543 l 352 564 "}}}
